<svg width="261" height="162" viewBox="0 0 261 162" fill="none" xmlns="http://www.w3.org/2000/svg">
<path d="M57.1494 0.621094C60.0322 0.727865 62.9417 1.26172 65.8779 2.22266C68.8675 3.13021 71.6169 4.625 74.126 6.70703C76.6351 8.73568 78.7705 11.3783 80.5322 14.6348C82.2939 17.8379 83.3883 21.7617 83.8154 26.4062C84.1891 30.1966 83.7087 33.9603 82.374 37.6973C81.0928 41.3809 79.3044 44.7708 77.0088 47.8672C74.7132 50.9635 72.0706 53.6061 69.0811 55.7949C66.0915 57.9303 63.1019 59.3451 60.1123 60.0391C58.2972 60.4661 56.2952 60.5195 54.1064 60.1992C51.971 59.8255 49.7822 59.1582 47.54 58.1973C45.3512 57.1829 43.1891 55.9017 41.0537 54.3535C38.9717 52.8053 37.0765 51.0436 35.3682 49.0684C33.6598 47.0397 32.2184 44.8509 31.0439 42.502C29.9229 40.153 29.2288 37.6973 28.9619 35.1348C28.695 32.9993 28.6683 30.6504 28.8818 28.0879C29.1488 25.472 29.6559 22.8828 30.4033 20.3203C31.2041 17.7044 32.2985 15.1953 33.6865 12.793C35.1279 10.3372 36.943 8.20182 39.1318 6.38672C41.3206 4.51823 43.8831 3.07682 46.8193 2.0625C49.8089 0.994792 53.2523 0.514323 57.1494 0.621094ZM42.8154 33.0527C42.068 38.765 42.6019 43.3561 44.417 46.8262C46.2855 50.2962 49.0882 52.4049 52.8252 53.1523C54.6403 53.526 56.3753 53.1523 58.0303 52.0312C59.7386 50.8568 61.2868 49.1751 62.6748 46.9863C64.0628 44.7975 65.264 42.235 66.2783 39.2988C67.2926 36.3626 68.04 33.293 68.5205 30.0898C69.001 26.8867 69.0277 24.0039 68.6006 21.4414C68.2269 18.8255 67.5596 16.61 66.5986 14.7949C65.6377 12.9264 64.4632 11.485 63.0752 10.4707C61.7406 9.45638 60.3525 8.89583 58.9111 8.78906C56.402 8.62891 54.2132 9.29622 52.3447 10.791C50.4762 12.2324 48.9014 14.1276 47.6201 16.4766C46.3389 18.8255 45.2979 21.4681 44.4971 24.4043C43.7497 27.3405 43.1891 30.2233 42.8154 33.0527ZM82.6943 3.66406C84.723 4.14453 86.5381 4.51823 88.1396 4.78516C89.7946 4.9987 91.1826 5.15885 92.3037 5.26562C93.6383 5.42578 94.8128 5.47917 95.8271 5.42578C97.1084 5.3724 98.71 5.18555 100.632 4.86523C102.554 4.54492 104.582 4.22461 106.718 3.9043C108.853 3.58398 110.962 3.31706 113.044 3.10352C115.126 2.88997 116.941 2.86328 118.489 3.02344C120.037 3.18359 121.666 3.55729 123.374 4.14453C125.082 4.67839 126.684 5.42578 128.179 6.38672C129.674 7.29427 130.955 8.41536 132.022 9.75C133.144 11.0846 133.838 12.6328 134.104 14.3945C134.371 16.1029 134.211 17.9447 133.624 19.9199C133.037 21.8418 132.103 23.737 130.821 25.6055C129.54 27.4206 127.938 29.1022 126.017 30.6504C124.095 32.1986 121.959 33.4531 119.61 34.4141C117.742 35.1081 115.713 35.6419 113.524 36.0156C111.656 36.3359 109.467 36.5495 106.958 36.6562C104.502 36.7096 101.886 36.4427 99.1104 35.8555C98.7367 37.4036 98.5231 38.8451 98.4697 40.1797C98.4697 41.4609 98.5231 42.6087 98.6299 43.623C98.79 44.7975 99.0036 45.8652 99.2705 46.8262C99.5908 47.7871 99.9912 48.9082 100.472 50.1895C100.899 51.2572 101.379 52.5651 101.913 54.1133C102.5 55.6081 103.194 57.2897 103.995 59.1582C103.034 59.1582 102.1 59.1849 101.192 59.2383C100.285 59.2383 99.4574 59.265 98.71 59.3184C97.8558 59.3717 97.055 59.4251 96.3076 59.4785C95.4535 59.5319 94.4925 59.6387 93.4248 59.7988C92.5173 59.9056 91.3695 60.0658 89.9814 60.2793C88.6468 60.4928 87.1253 60.7598 85.417 61.0801C86.5381 59.4785 87.4189 58.0104 88.0596 56.6758C88.7536 55.2878 89.2607 54.0866 89.5811 53.0723C89.9548 51.8978 90.195 50.8301 90.3018 49.8691C90.3551 49.0684 90.3551 47.6536 90.3018 45.625C90.3018 43.5964 90.2751 41.2474 90.2217 38.5781C90.1683 35.9089 90.0882 33.1061 89.9814 30.1699C89.8747 27.2337 89.7412 24.4844 89.5811 21.9219C89.4209 19.306 89.234 17.0638 89.0205 15.1953C88.8604 13.3268 88.7002 12.099 88.54 11.5117C88.3265 10.8177 87.9528 10.0703 87.4189 9.26953C86.9919 8.57552 86.3779 7.77474 85.5771 6.86719C84.8298 5.90625 83.8688 4.83854 82.6943 3.66406ZM99.2705 19.4395C99.2171 19.9733 99.1904 20.5339 99.1904 21.1211C99.1904 22.2422 99.2705 23.6836 99.4307 25.4453C99.8044 26.3529 100.258 27.1003 100.792 27.6875C101.379 28.2747 101.993 28.7285 102.634 29.0488C103.328 29.3691 104.022 29.5827 104.716 29.6895C105.41 29.7962 106.104 29.8496 106.798 29.8496C108.399 29.7962 110.081 29.4225 111.843 28.7285C114.192 27.7142 115.847 26.2728 116.808 24.4043C117.769 22.5358 118.276 20.6139 118.329 18.6387C118.382 16.6634 118.035 14.8483 117.288 13.1934C116.594 11.5384 115.74 10.4173 114.726 9.83008C113.871 9.45638 112.777 9.29622 111.442 9.34961C110.268 9.40299 108.8 9.69661 107.038 10.2305C105.276 10.7643 103.114 11.7253 100.552 13.1133C100.285 14.0742 100.071 14.9284 99.9111 15.6758C99.751 16.4232 99.6175 17.0905 99.5107 17.6777C99.404 18.3184 99.3239 18.9056 99.2705 19.4395ZM130.101 6.30664C133.838 6.41341 136.934 6.49349 139.39 6.54688C141.899 6.54688 143.927 6.54688 145.476 6.54688H149.72H173.583C173.69 7.61458 173.77 8.6556 173.823 9.66992C173.93 10.6309 173.983 11.485 173.983 12.2324C173.983 13.14 173.957 13.9674 173.903 14.7148C173.85 15.4622 173.77 16.263 173.663 17.1172C173.556 17.8646 173.45 18.6654 173.343 19.5195C173.236 20.3737 173.049 21.2546 172.782 22.1621C172.035 19.2793 171.021 17.0905 169.739 15.5957C168.511 14.1009 167.257 13.0065 165.976 12.3125C164.481 11.5117 162.906 11.0846 161.251 11.0312C159.062 11.138 157.354 11.3249 156.126 11.5918C154.898 11.8587 153.937 12.2324 153.243 12.7129C152.549 13.1934 152.015 13.7539 151.642 14.3945C151.321 14.9818 150.974 15.6491 150.601 16.3965C150.28 17.0371 149.987 18.0247 149.72 19.3594C149.453 20.4805 149.186 22.002 148.919 23.9238C148.705 25.8457 148.465 28.3281 148.198 31.3711C149.64 30.944 150.787 30.5436 151.642 30.1699C152.549 29.7962 153.27 29.4759 153.804 29.209C154.391 28.8887 154.818 28.5951 155.085 28.3281C155.299 28.0078 155.619 27.4206 156.046 26.5664C156.366 25.819 156.793 24.8047 157.327 23.5234C157.914 22.2422 158.608 20.4805 159.409 18.2383C159.516 20.694 159.569 22.7493 159.569 24.4043C159.569 26.0059 159.596 27.3138 159.649 28.3281C159.649 29.5026 159.676 30.4368 159.729 31.1309V34.1738C159.729 35.2949 159.729 36.8164 159.729 38.7383C159.783 40.6068 159.863 42.9824 159.97 45.8652C159.329 43.89 158.742 42.3418 158.208 41.2207C157.728 40.0462 157.3 39.1654 156.927 38.5781C156.5 37.8841 156.126 37.4036 155.806 37.1367C155.432 37.0299 154.925 36.9232 154.284 36.8164C153.697 36.763 152.95 36.7363 152.042 36.7363C151.188 36.7363 150.093 36.8698 148.759 37.1367C148.599 40.0729 148.572 42.4486 148.679 44.2637C148.839 46.0254 149.052 47.3867 149.319 48.3477C149.586 49.4688 149.907 50.2695 150.28 50.75C150.761 51.2305 151.722 51.6309 153.163 51.9512C154.604 52.2181 156.233 52.3249 158.048 52.2715C159.916 52.1647 161.812 51.8444 163.733 51.3105C165.655 50.7767 167.364 49.8958 168.858 48.668C169.979 47.6536 171.181 46.3724 172.462 44.8242C173.53 43.4896 174.704 41.8079 175.985 39.7793C177.32 37.7507 178.628 35.2949 179.909 32.4121C179.696 34.8145 179.535 36.8164 179.429 38.418C179.375 39.9661 179.295 41.2207 179.188 42.1816C179.082 43.3027 179.002 44.1569 178.948 44.7441C178.948 45.3848 178.868 46.2923 178.708 47.4668C178.601 48.4811 178.414 49.8691 178.147 51.6309C177.934 53.3392 177.64 55.528 177.267 58.1973C174.757 58.2507 172.382 58.304 170.14 58.3574C167.897 58.3574 165.922 58.3841 164.214 58.4375C162.185 58.4909 160.317 58.5443 158.608 58.5977C156.847 58.5977 154.898 58.6777 152.763 58.8379C150.894 58.9447 148.679 59.1048 146.116 59.3184C143.607 59.5319 140.831 59.8255 137.788 60.1992C138.055 56.569 138.242 53.1523 138.349 49.9492C138.509 46.6927 138.616 43.8366 138.669 41.3809C138.722 38.498 138.722 35.8288 138.669 33.373C138.936 27.2337 138.829 22.2689 138.349 18.4785C137.868 14.6882 137.308 12.2591 136.667 11.1914C136.347 10.8177 135.893 10.3639 135.306 9.83008C134.825 9.40299 134.158 8.89583 133.304 8.30859C132.45 7.72135 131.382 7.05404 130.101 6.30664ZM178.708 4.22461C181.11 4.65169 183.086 4.94531 184.634 5.10547C186.182 5.26562 187.437 5.39909 188.397 5.50586C189.519 5.61263 190.399 5.63932 191.04 5.58594H193.442C194.297 5.58594 195.364 5.58594 196.646 5.58594C197.98 5.53255 199.635 5.50586 201.61 5.50586C202.731 8.12174 203.746 10.5241 204.653 12.7129C205.614 14.9017 206.415 16.7702 207.056 18.3184C207.803 20.1868 208.497 21.8685 209.138 23.3633C209.885 25.2318 210.686 27.2871 211.54 29.5293C212.394 31.7715 213.168 33.8802 213.862 35.8555C214.61 37.8307 215.224 39.459 215.704 40.7402C216.185 42.0215 216.425 42.6087 216.425 42.502C216.425 42.4486 216.451 41.9147 216.505 40.9004C216.558 39.8327 216.612 38.5247 216.665 36.9766C216.718 35.375 216.772 33.64 216.825 31.7715C216.932 29.8496 216.985 28.0078 216.985 26.2461C217.039 24.431 217.065 22.776 217.065 21.2812C217.065 19.7865 217.012 18.6654 216.905 17.918C216.745 17.0104 216.425 15.9694 215.944 14.7949C215.517 13.7806 214.93 12.5794 214.183 11.1914C213.435 9.75 212.394 8.12174 211.06 6.30664C213.248 6.36003 215.037 6.38672 216.425 6.38672C217.813 6.38672 218.934 6.38672 219.788 6.38672C220.749 6.38672 221.496 6.36003 222.03 6.30664C222.724 6.30664 223.578 6.25326 224.593 6.14648C225.5 6.03971 226.621 5.95964 227.956 5.90625C229.344 5.79948 231.052 5.66602 233.081 5.50586C231.907 6.57357 230.972 7.58789 230.278 8.54883C229.584 9.50977 229.024 10.3639 228.597 11.1113C228.116 11.9655 227.796 12.7663 227.636 13.5137C227.422 14.4746 227.235 16.0495 227.075 18.2383C226.968 20.3737 226.835 22.776 226.675 25.4453C226.568 28.1146 226.461 30.8906 226.354 33.7734C226.248 36.6562 226.141 39.2988 226.034 41.7012C226.034 43.5163 225.981 45.4648 225.874 47.5469C225.767 49.3086 225.66 51.3105 225.554 53.5527C225.447 55.7415 225.313 57.957 225.153 60.1992L218.026 60.3594C215.944 56.6758 214.183 53.526 212.741 50.9102C211.353 48.2409 210.205 46.0521 209.298 44.3438C208.284 42.3685 207.429 40.7135 206.735 39.3789C206.148 38.0977 205.374 36.6296 204.413 34.9746C203.612 33.5866 202.598 31.8783 201.37 29.8496C200.196 27.821 198.781 25.4987 197.126 22.8828C196.966 26.5664 196.886 29.7161 196.886 32.332C196.939 34.8945 197.019 37.0299 197.126 38.7383C197.286 40.7135 197.473 42.3685 197.687 43.7031C197.953 44.9844 198.327 46.4258 198.808 48.0273C199.235 49.4154 199.742 51.0436 200.329 52.9121C200.97 54.7806 201.744 56.8893 202.651 59.2383C199.502 59.0781 197.153 58.998 195.604 58.998H193.202C192.455 58.998 191.44 59.0781 190.159 59.2383C189.091 59.3451 187.623 59.5052 185.755 59.7188C183.94 59.9323 181.671 60.2259 178.948 60.5996C180.229 59.0514 181.244 57.6367 181.991 56.3555C182.792 55.0208 183.406 53.8997 183.833 52.9922C184.367 51.9245 184.741 50.9902 184.954 50.1895C185.114 49.3353 185.221 47.8672 185.274 45.7852C185.328 43.6497 185.328 41.2474 185.274 38.5781C185.274 35.8555 185.221 32.9993 185.114 30.0098C185.061 27.0202 184.981 24.2441 184.874 21.6816C184.767 19.1191 184.634 16.9303 184.474 15.1152C184.367 13.3001 184.287 12.179 184.233 11.752C184.073 11.0579 183.753 10.3105 183.272 9.50977C182.845 8.81576 182.285 8.04167 181.591 7.1875C180.897 6.27995 179.936 5.29232 178.708 4.22461ZM0.974609 104.746C4.17773 105.013 6.98047 105.173 9.38281 105.227C11.8385 105.28 13.9206 105.307 15.6289 105.307C17.6042 105.307 19.3125 105.253 20.7539 105.146C22.2487 104.986 24.1973 104.773 26.5996 104.506C28.6283 104.239 31.2441 103.892 34.4473 103.465C37.6504 102.984 41.5475 102.37 46.1387 101.623C45.5514 102.531 45.0443 103.492 44.6172 104.506C44.2435 105.467 43.9232 106.348 43.6562 107.148C43.3893 108.109 43.1491 109.044 42.9355 109.951C42.7754 110.965 42.5885 112.22 42.375 113.715C42.1615 114.996 41.8945 116.624 41.5742 118.6C41.3073 120.521 40.9603 122.817 40.5332 125.486C38.9316 121.322 37.3034 118.119 35.6484 115.877C34.0469 113.635 32.5521 111.98 31.1641 110.912C29.5625 109.684 28.041 108.99 26.5996 108.83C24.5176 108.83 22.8092 109.23 21.4746 110.031C20.14 110.832 19.0456 111.873 18.1914 113.154C17.3906 114.382 16.7767 115.743 16.3496 117.238C15.9225 118.68 15.6289 120.094 15.4688 121.482C15.3086 122.817 15.2018 124.018 15.1484 125.086C15.0951 126.1 15.0417 126.794 14.9883 127.168C16.8568 127.061 18.4316 126.928 19.7129 126.768C20.9941 126.607 22.0085 126.447 22.7559 126.287C23.6634 126.074 24.3841 125.86 24.918 125.646C25.7188 125.219 26.5195 124.712 27.3203 124.125C28.0143 123.591 28.735 122.951 29.4824 122.203C30.2832 121.456 30.9772 120.548 31.5645 119.48C31.2441 121.402 30.9505 123.004 30.6836 124.285C30.4701 125.566 30.2832 126.581 30.123 127.328C29.9095 128.236 29.776 128.93 29.7227 129.41C29.6159 129.891 29.4824 130.558 29.3223 131.412C29.1621 132.16 28.9753 133.12 28.7617 134.295C28.5482 135.469 28.3079 136.938 28.041 138.699C27.4004 137.578 26.7331 136.671 26.0391 135.977C25.3451 135.229 24.7044 134.642 24.1172 134.215C23.4232 133.734 22.7559 133.361 22.1152 133.094C21.4212 132.88 20.6738 132.667 19.873 132.453C19.179 132.293 18.3516 132.133 17.3906 131.973C16.4831 131.759 15.4954 131.572 14.4277 131.412C14.5345 134.295 14.6947 136.777 14.9082 138.859C15.1217 140.888 15.3086 142.596 15.4688 143.984C15.6823 145.586 15.8958 146.921 16.1094 147.988C16.3763 149.056 16.8034 150.204 17.3906 151.432C17.8711 152.499 18.5384 153.727 19.3926 155.115C20.3001 156.45 21.4479 157.891 22.8359 159.439C21.7682 159.173 20.6471 158.986 19.4727 158.879C18.2982 158.772 17.2572 158.692 16.3496 158.639C15.2285 158.585 14.1608 158.585 13.1465 158.639C12.0788 158.692 10.9043 158.799 9.62305 158.959C8.55534 159.066 7.32747 159.226 5.93945 159.439C4.55143 159.653 3.08333 159.893 1.53516 160.16C2.44271 159.253 3.1901 158.345 3.77734 157.438C4.36458 156.53 4.79167 155.729 5.05859 155.035C5.37891 154.234 5.59245 153.46 5.69922 152.713C5.7526 152.072 5.7793 150.684 5.7793 148.549C5.7793 146.36 5.7526 143.824 5.69922 140.941C5.64583 138.005 5.56576 134.909 5.45898 131.652C5.35221 128.396 5.24544 125.353 5.13867 122.523C5.0319 119.641 4.89844 117.185 4.73828 115.156C4.63151 113.128 4.49805 111.9 4.33789 111.473C4.12435 110.939 3.88411 110.325 3.61719 109.631C3.1901 108.51 2.30924 106.882 0.974609 104.746ZM71.6836 99.6211C74.5664 99.7279 77.4759 100.262 80.4121 101.223C83.4017 102.13 86.151 103.625 88.6602 105.707C91.1693 107.736 93.3047 110.378 95.0664 113.635C96.8281 116.838 97.9225 120.762 98.3496 125.406C98.7233 129.197 98.2428 132.96 96.9082 136.697C95.627 140.381 93.8385 143.771 91.543 146.867C89.2474 149.964 86.6048 152.606 83.6152 154.795C80.6257 156.93 77.6361 158.345 74.6465 159.039C72.8314 159.466 70.8294 159.52 68.6406 159.199C66.5052 158.826 64.3164 158.158 62.0742 157.197C59.8854 156.183 57.7233 154.902 55.5879 153.354C53.5059 151.805 51.6107 150.044 49.9023 148.068C48.194 146.04 46.7526 143.851 45.5781 141.502C44.457 139.153 43.763 136.697 43.4961 134.135C43.2292 131.999 43.2025 129.65 43.416 127.088C43.6829 124.472 44.1901 121.883 44.9375 119.32C45.7383 116.704 46.8327 114.195 48.2207 111.793C49.6621 109.337 51.4772 107.202 53.666 105.387C55.8548 103.518 58.4173 102.077 61.3535 101.062C64.3431 99.9948 67.7865 99.5143 71.6836 99.6211ZM57.3496 132.053C56.6022 137.765 57.1361 142.356 58.9512 145.826C60.8197 149.296 63.6224 151.405 67.3594 152.152C69.1745 152.526 70.9095 152.152 72.5645 151.031C74.2728 149.857 75.821 148.175 77.209 145.986C78.597 143.798 79.7982 141.235 80.8125 138.299C81.8268 135.363 82.5742 132.293 83.0547 129.09C83.5352 125.887 83.5618 123.004 83.1348 120.441C82.7611 117.826 82.0938 115.61 81.1328 113.795C80.1719 111.926 78.9974 110.485 77.6094 109.471C76.2747 108.456 74.8867 107.896 73.4453 107.789C70.9362 107.629 68.7474 108.296 66.8789 109.791C65.0104 111.232 63.4355 113.128 62.1543 115.477C60.873 117.826 59.832 120.468 59.0312 123.404C58.2839 126.34 57.7233 129.223 57.3496 132.053ZM130.141 99.6211C133.023 99.7279 135.933 100.262 138.869 101.223C141.859 102.13 144.608 103.625 147.117 105.707C149.626 107.736 151.762 110.378 153.523 113.635C155.285 116.838 156.38 120.762 156.807 125.406C157.18 129.197 156.7 132.96 155.365 136.697C154.084 140.381 152.296 143.771 150 146.867C147.704 149.964 145.062 152.606 142.072 154.795C139.083 156.93 136.093 158.345 133.104 159.039C131.288 159.466 129.286 159.52 127.098 159.199C124.962 158.826 122.773 158.158 120.531 157.197C118.342 156.183 116.18 154.902 114.045 153.354C111.963 151.805 110.068 150.044 108.359 148.068C106.651 146.04 105.21 143.851 104.035 141.502C102.914 139.153 102.22 136.697 101.953 134.135C101.686 131.999 101.66 129.65 101.873 127.088C102.14 124.472 102.647 121.883 103.395 119.32C104.195 116.704 105.29 114.195 106.678 111.793C108.119 109.337 109.934 107.202 112.123 105.387C114.312 103.518 116.874 102.077 119.811 101.062C122.8 99.9948 126.243 99.5143 130.141 99.6211ZM115.807 132.053C115.059 137.765 115.593 142.356 117.408 145.826C119.277 149.296 122.079 151.405 125.816 152.152C127.632 152.526 129.367 152.152 131.021 151.031C132.73 149.857 134.278 148.175 135.666 145.986C137.054 143.798 138.255 141.235 139.27 138.299C140.284 135.363 141.031 132.293 141.512 129.09C141.992 125.887 142.019 123.004 141.592 120.441C141.218 117.826 140.551 115.61 139.59 113.795C138.629 111.926 137.454 110.485 136.066 109.471C134.732 108.456 133.344 107.896 131.902 107.789C129.393 107.629 127.204 108.296 125.336 109.791C123.467 111.232 121.893 113.128 120.611 115.477C119.33 117.826 118.289 120.468 117.488 123.404C116.741 126.34 116.18 129.223 115.807 132.053ZM155.285 102.904C157.154 103.171 158.782 103.385 160.17 103.545C161.558 103.705 162.706 103.839 163.613 103.945C164.681 104.052 165.589 104.132 166.336 104.186C167.19 104.292 168.231 104.239 169.459 104.025C170.74 103.812 172.102 103.598 173.543 103.385C174.984 103.118 176.479 102.904 178.027 102.744C179.576 102.584 181.07 102.584 182.512 102.744C183.473 102.851 184.701 103.064 186.195 103.385C187.69 103.705 189.265 104.212 190.92 104.906C192.628 105.6 194.337 106.508 196.045 107.629C197.753 108.75 199.301 110.165 200.689 111.873C202.077 113.581 203.225 115.61 204.133 117.959C205.04 120.308 205.548 123.057 205.654 126.207C205.814 130.905 205.387 135.176 204.373 139.02C203.359 142.863 201.784 146.146 199.648 148.869C197.566 151.592 194.924 153.727 191.721 155.275C188.518 156.824 184.781 157.678 180.51 157.838C177.253 158.105 174.05 158.345 170.9 158.559C169.566 158.665 168.151 158.745 166.656 158.799C165.215 158.852 163.773 158.906 162.332 158.959C160.891 158.959 159.503 158.932 158.168 158.879C156.833 158.826 155.605 158.745 154.484 158.639C155.712 158.051 156.7 157.464 157.447 156.877C158.248 156.29 158.862 155.783 159.289 155.355C159.77 154.822 160.117 154.341 160.33 153.914C160.437 153.327 160.597 152.179 160.811 150.471C160.971 149.029 161.184 146.974 161.451 144.305C161.718 141.635 162.038 138.005 162.412 133.414L162.893 127.729C163.16 124.205 163.266 121.322 163.213 119.08C163.213 116.838 163.16 115.076 163.053 113.795C162.893 112.3 162.679 111.206 162.412 110.512C162.199 109.924 161.798 109.23 161.211 108.43C160.677 107.789 159.93 107.015 158.969 106.107C158.061 105.146 156.833 104.079 155.285 102.904ZM172.182 132.373C172.288 137.124 172.529 140.781 172.902 143.344C173.329 145.853 173.783 147.721 174.264 148.949C174.851 150.337 175.492 151.165 176.186 151.432C177.2 151.432 178.348 151.005 179.629 150.15C180.91 149.243 182.165 147.882 183.393 146.066C184.674 144.251 185.822 141.982 186.836 139.26C187.904 136.537 188.678 133.361 189.158 129.73C189.639 126.1 189.505 122.897 188.758 120.121C188.01 117.345 187.023 115.023 185.795 113.154C184.567 111.232 183.312 109.791 182.031 108.83C180.75 107.816 179.789 107.309 179.148 107.309C178.401 107.309 177.734 107.522 177.146 107.949C176.559 108.323 175.732 109.204 174.664 110.592C174.13 111.339 173.65 112.407 173.223 113.795C172.849 115.023 172.529 116.651 172.262 118.68C171.995 120.708 171.915 123.324 172.021 126.527L172.182 132.373ZM260.027 101.383C259.28 103.091 258.613 104.586 258.025 105.867C257.438 107.148 256.931 108.243 256.504 109.15C256.023 110.165 255.623 111.072 255.303 111.873C255.036 112.46 254.689 113.261 254.262 114.275C253.835 115.183 253.301 116.384 252.66 117.879C252.073 119.32 251.299 121.189 250.338 123.484C249.857 121.509 249.27 119.774 248.576 118.279C247.882 116.785 247.135 115.477 246.334 114.355C245.533 113.234 244.679 112.327 243.771 111.633C242.917 110.885 242.063 110.271 241.209 109.791C239.234 108.723 237.152 108.136 234.963 108.029C232.08 108.189 229.811 108.67 228.156 109.471C226.555 110.218 225.38 111.099 224.633 112.113C223.885 113.074 223.485 114.089 223.432 115.156C223.378 116.171 223.512 117.025 223.832 117.719C224.099 118.359 225.033 119.107 226.635 119.961C228.29 120.815 230.265 121.803 232.561 122.924C234.91 123.992 237.419 125.219 240.088 126.607C242.757 127.942 245.213 129.437 247.455 131.092C249.751 132.693 251.673 134.455 253.221 136.377C254.822 138.245 255.703 140.247 255.863 142.383C256.023 145.105 255.997 147.561 255.783 149.75C255.57 151.939 254.822 153.807 253.541 155.355C252.26 156.904 250.258 158.132 247.535 159.039C244.866 159.947 241.156 160.507 236.404 160.721C231.493 160.934 227.462 160.667 224.312 159.92C221.163 159.173 218.6 158.158 216.625 156.877C214.703 155.596 213.262 154.181 212.301 152.633C211.393 151.085 210.726 149.617 210.299 148.229C209.872 146.787 209.578 145.559 209.418 144.545C209.258 143.477 208.991 142.837 208.617 142.623C208.19 142.356 207.763 142.116 207.336 141.902C206.962 141.689 206.562 141.502 206.135 141.342C205.708 141.128 205.281 140.941 204.854 140.781L228.156 137.018C226.822 138.085 225.781 139.073 225.033 139.98C224.339 140.888 223.805 141.689 223.432 142.383C223.005 143.184 222.711 143.931 222.551 144.625C222.444 145.372 222.684 146.307 223.271 147.428C223.859 148.549 224.66 149.643 225.674 150.711C226.742 151.725 227.969 152.579 229.357 153.273C230.745 153.967 232.187 154.261 233.682 154.154C235.55 153.994 237.072 153.54 238.246 152.793C239.421 151.992 240.301 151.005 240.889 149.83C241.529 148.656 241.903 147.374 242.01 145.986C242.117 144.598 241.983 143.237 241.609 141.902C241.289 140.514 240.755 139.233 240.008 138.059C239.26 136.831 238.38 135.816 237.365 135.016C236.458 134.375 235.043 133.761 233.121 133.174C231.253 132.587 229.144 131.946 226.795 131.252C224.499 130.558 222.124 129.757 219.668 128.85C217.266 127.942 215.077 126.821 213.102 125.486C211.18 124.152 209.632 122.577 208.457 120.762C207.336 118.947 206.909 116.758 207.176 114.195C207.389 112.007 208.083 110.191 209.258 108.75C210.486 107.255 212.007 106.081 213.822 105.227C215.691 104.319 217.746 103.652 219.988 103.225C222.284 102.798 224.606 102.557 226.955 102.504C229.357 102.397 231.706 102.424 234.002 102.584C236.351 102.744 238.46 102.931 240.328 103.145C242.197 103.358 243.771 103.572 245.053 103.785C246.387 103.945 247.215 104.052 247.535 104.105C248.923 104.212 250.311 104.186 251.699 104.025C252.927 103.919 254.262 103.678 255.703 103.305C257.198 102.878 258.639 102.237 260.027 101.383Z" fill="white"/>
</svg>
