<svg width="49" height="50" viewBox="0 0 49 50" fill="none" xmlns="http://www.w3.org/2000/svg">
    <g clip-path="url(#clip0_2001_481)">
        <mask id="mask0_2001_481" style="mask-type:luminance" maskUnits="userSpaceOnUse" x="0" y="0" width="49"
            height="50">
            <path d="M49 0H0V50H49V0Z" fill="white" />
        </mask>
        <g mask="url(#mask0_2001_481)">
            <path
                d="M45.3496 38.73C47.9296 34.78 49.4196 30.05 49.4196 24.97C49.4196 19.89 47.9096 15.16 45.3496 11.21V38.72V38.73Z"
                fill="#001D6B" />
            <path
                d="M19.7498 0.47998C18.9198 0.64998 18.1198 0.85998 17.3398 1.09998V48.83C18.1198 49.07 18.9498 49.28 19.7498 49.45V0.47998Z"
                fill="#001D6B" />
            <path
                d="M23.6495 0C22.9395 0.02 22.2295 0.1 21.5195 0.19V49.78C22.2295 49.88 22.9395 49.92 23.6495 49.97V0Z"
                fill="#001D6B" />
            <path
                d="M15.7796 1.6499C14.8296 2.0099 13.9296 2.4399 13.0596 2.9199V47.0299C13.9396 47.5099 14.8296 47.9399 15.7796 48.2999V1.6499Z"
                fill="#001D6B" />
            <path
                d="M8.75 44.0401C9.74 44.8801 10.78 45.6401 11.87 46.3401V3.59009C10.76 4.26009 9.72 5.03009 8.75 5.89009V44.0501V44.0401Z"
                fill="#001D6B" />
            <path
                d="M8.04004 6.51001C6.74004 7.71001 5.58004 9.05001 4.54004 10.51V39.43C5.56004 40.89 6.74004 42.23 8.04004 43.43V6.51001Z"
                fill="#001D6B" />
            <path
                d="M44.8703 10.5C43.5803 8.66 42.0403 7 40.3103 5.58V13.97C40.0703 13.63 39.8303 13.3 39.6003 12.99V5.02C38.4503 4.14 37.2203 3.35 35.9303 2.69V9.11C35.5503 8.82 35.1503 8.55 34.7503 8.28V2.12C33.6603 1.63 32.5303 1.22 31.3703 0.9V6.51C30.8703 6.34 30.3503 6.17 29.8303 6.03V0.52C28.5203 0.23 27.1603 0.06 25.7803 0V49.95C28.9603 49.81 31.9903 49.07 34.7503 47.8V41.7C35.1503 41.43 35.5503 41.17 35.9303 40.88V47.22C37.2203 46.56 38.4503 45.81 39.6003 44.93V36.94C39.8303 36.63 40.0703 36.29 40.3103 35.96V44.35C42.0403 42.94 43.6003 41.3 44.9003 39.45V10.5H44.8703ZM27.4903 7.13C28.3903 7.27 29.2403 7.49 30.0903 7.75V42.18C29.2403 42.44 28.3903 42.65 27.4903 42.8V7.13ZM31.3703 49.02C30.8703 49.16 30.3503 49.28 29.8303 49.4V43.85C30.3503 43.71 30.8703 43.56 31.3703 43.37V49.02ZM34.3003 40.19C33.4003 40.76 32.4503 41.27 31.4603 41.67V8.25C32.4503 8.66 33.4003 9.16 34.3003 9.74V40.19ZM38.5603 36.36C37.6303 37.51 36.5503 38.56 35.3603 39.45V10.48C36.5503 11.36 37.6303 12.41 38.5603 13.56V36.36ZM40.7803 32.82C40.3803 33.68 39.9103 34.5 39.3603 35.26V14.64C39.9103 15.41 40.3803 16.22 40.7803 17.08C41.9403 19.45 42.5803 22.13 42.5803 24.95C42.5803 27.77 41.9203 30.43 40.7803 32.82Z"
                fill="#001D6B" />
            <path d="M4.07 11.2C1.51 15.14 0 19.88 0 24.98C0 30.08 1.51 34.79 4.07 38.74V11.2Z" fill="#001D6B" />
            <path
                d="M45.3496 38.73C47.9296 34.78 49.4196 30.05 49.4196 24.97C49.4196 19.89 47.9096 15.16 45.3496 11.21V38.72V38.73Z"
                fill="#001D6B" />
        </g>
    </g>
    <defs>
        <clipPath id="clip0_2001_481">
            <rect width="49" height="50" fill="white" />
        </clipPath>
    </defs>
</svg>