<svg xmlns="http://www.w3.org/2000/svg" width="54" height="60" viewBox="0 0 54 60" fill="none">
    <path
        d="M52.6145 11.9945C47.0773 11.9945 41.5678 11.9946 36.0013 11.9171C34.4752 11.8674 33.0047 12.4842 31.9712 13.6084C30.6117 14.9547 29.245 16.3141 27.9835 17.7511C27.2014 18.6457 26.6664 18.6311 25.8697 17.7511C24.5132 16.1592 23.0441 14.6667 21.4741 13.2838C20.559 12.5281 19.4305 12.0779 18.248 11.9945C12.5338 11.8674 6.81972 11.9375 0.9375 11.6627C1.61431 11.192 2.32036 10.7637 3.05125 10.3807C8.34292 7.94979 13.6199 5.56123 18.9525 3.1449C20.3953 2.53241 21.806 1.8483 23.18 1.09402C25.3639 -0.29614 28.1355 -0.366306 30.3881 0.911295C36.1095 3.77932 41.9567 6.40614 47.7614 9.11191C48.9732 9.67616 50.2348 10.1337 51.4539 10.6906C51.9436 10.9421 52.4143 11.2257 52.863 11.5429L52.616 11.9931L52.6145 11.9945Z"
        fill="url(#paint0_linear_112_1451)" />
    <path
        d="M0 27.1279H17.0283C18.0706 27.1279 18.7825 27.2405 18.7752 28.6292C18.7752 38.6059 18.7752 48.5811 18.8249 58.5651C18.7474 58.856 18.6436 59.1396 18.515 59.41L0 27.1279ZM53.6504 27.4934L35.5155 59.0489L35.1428 58.894V55.8579C35.1428 46.805 35.1428 37.758 35.1004 28.7125C35.1004 27.7185 35.2349 27.1279 36.3546 27.1338H52.6433C52.9912 27.2156 53.3303 27.3355 53.6504 27.4934Z"
        fill="url(#paint1_linear_112_1451)" />
    <defs>
        <linearGradient id="paint0_linear_112_1451" x1="27.1605" y1="0.304654" x2="25.7878" y2="59.678"
            gradientUnits="userSpaceOnUse">
            <stop stop-color="#90732E" />
            <stop offset="0.47" stop-color="#F9DC9C" />
            <stop offset="0.54" stop-color="#F0D393" />
            <stop offset="0.66" stop-color="#DABD7B" />
            <stop offset="0.82" stop-color="#B79953" />
            <stop offset="0.99" stop-color="#85671E" />
            <stop offset="1" stop-color="#83651B" />
        </linearGradient>
        <linearGradient id="paint1_linear_112_1451" x1="27.4494" y1="0.310003" x2="26.0768" y2="59.6848"
            gradientUnits="userSpaceOnUse">
            <stop stop-color="#90732E" />
            <stop offset="0.47" stop-color="#F9DC9C" />
            <stop offset="0.54" stop-color="#F0D393" />
            <stop offset="0.66" stop-color="#DABD7B" />
            <stop offset="0.82" stop-color="#B79953" />
            <stop offset="0.99" stop-color="#85671E" />
            <stop offset="1" stop-color="#83651B" />
        </linearGradient>
    </defs>
</svg>