<svg width="267" height="513" viewBox="0 0 267 513" fill="none" xmlns="http://www.w3.org/2000/svg">
    <path
        d="M95.2054 373.232L93.3081 345.405C92.0432 326.432 92.6757 310.411 95.2054 297.341C97.7351 284.059 103.005 272.465 111.016 262.557C119.027 252.438 130.622 242.53 145.8 232.832L156.551 225.876C160.978 222.924 164.246 218.813 166.354 213.543C168.673 208.062 170.149 201.949 170.781 195.203C171.414 188.246 171.73 181.184 171.73 174.016V108.876C171.73 98.7567 168.357 90.9567 161.611 85.4756C154.865 79.9946 145.168 77.254 132.519 77.254C120.924 77.254 111.859 79.9946 105.324 85.4756C98.7892 90.9567 95.2054 98.7567 94.573 108.876C93.7297 124.897 93.2027 140.181 92.9919 154.727C92.9919 169.062 93.3081 182.87 93.9405 196.151H2.23784C2.02703 190.249 1.81622 183.713 1.60541 176.546C1.3946 169.168 1.18379 161.368 0.972974 153.146C0.972974 144.713 1.18378 135.859 1.60541 126.584C3.5027 81.2595 14.4649 48.9 34.4919 29.5054C54.5189 9.89997 86.9838 0.0972649 131.886 0.0972649C179.951 0.0972649 214.419 9.89997 235.289 29.5054C256.159 48.9 266.595 81.2595 266.595 126.584C266.595 131.854 266.595 137.019 266.595 142.078C266.595 146.927 266.595 151.986 266.595 157.257C266.595 162.316 266.595 167.903 266.595 174.016C266.595 197.627 264.381 216.6 259.954 230.935C255.738 245.059 250.362 256.022 243.827 263.822C237.292 271.622 230.546 277.524 223.589 281.53C216.632 285.324 210.519 288.697 205.249 291.649L190.07 299.87C181.216 304.508 175.841 311.043 173.943 319.476C172.257 327.908 170.886 336.551 169.832 345.405L167.303 373.232H95.2054ZM78.1297 513V425.092H185.643V513H78.1297Z"
        fill="url(#paint0_linear_73_1815)" />
    <defs>
        <linearGradient id="paint0_linear_73_1815" x1="125.5" y1="-25.5" x2="128" y2="543.5"
            gradientUnits="userSpaceOnUse">
            <stop stop-color="white" />
            <stop offset="1" stop-color="#07190F" />
        </linearGradient>
    </defs>
</svg>